PathFileType	4	(X/Y/Z)	C:\Users\T490\OneDrive\Desktop\110_Internship_Tasks\Sprint GSG Position Analysis\results\sports2d_output\sprint_video_Sports2D\sprint_video_Sports2D_m_person00.trc
DataRate	CameraRate	NumFrames	NumMarkers	Units	OrigDataRate	OrigDataStartFrame	OrigNumFrames
25.0	25.0	11	22	m	25.0	196	523
Frame#	Time	Hip			RHip			RKnee			RAnkle			RBigToe			RSmallToe			RHeel			LHip			LKnee			LAnkle			LBigToe			LSmallToe			LHeel			Neck			Head			Nose			RShoulder			RElbow			RWrist			LShoulder			LElbow			LWrist			
		X1	Y1	Z1	X2	Y2	Z2	X3	Y3	Z3	X4	Y4	Z4	X5	Y5	Z5	X6	Y6	Z6	X7	Y7	Z7	X8	Y8	Z8	X9	Y9	Z9	X10	Y10	Z10	X11	Y11	Z11	X12	Y12	Z12	X13	Y13	Z13	X14	Y14	Z14	X15	Y15	Z15	X16	Y16	Z16	X17	Y17	Z17	X18	Y18	Z18	X19	Y19	Z19	X20	Y20	Z20	X21	Y21	Z21	X22	Y22	Z22
196	7.85405017921147	3.521725941489658	0.5973869885512882	0.0301	3.4962453192070257	0.5446353249589136	0.0301	3.530200382464045	0.23948483169546236	0.129	3.882229651363081	0.19227653036633627	0.023	3.9188963338547897	0.019799907627002778	0.2179	3.9029277703615124	0.041789708711594424	0.1804	3.921234476900963	0.19313260407859506	-0.0119	3.5534371394062734	0.6176211285738966	0.0301	3.844839938217667	0.35901723402619995	0.129	4.229643141937599	0.1807162247272004	0.023	4.169532976838886	-0.01253084678400544	0.2179	4.234460125782096	0.016962237577125668	0.1804	4.295436912901598	0.18805164335773547	-0.0119	3.057721436586716	0.4280636254650535	0.0008	2.8826367741666	0.20308504801095126	0.0655	3.0240039016160525	0.26386222529747433	0.1076	3.079398097464861	0.45951685866086933	-0.01275	3.009312822151876	0.21481508920709508	0.0702	2.921037832706323	0.046915236276154425	0.1076	3.0499373350055654	0.4377452121176504	-0.01275	2.9603927708030966	0.18531236070181167	0.0702	2.863099161138026	0.003732398439898152	0.1076
197	7.894121863799283	3.5211890755144117	0.5963483884218693	0.0301	3.496486743507487	0.5444908211870861	0.0301	3.53055566950177	0.24029233285608073	0.129	3.87963392934129	0.1920796440973471	0.023	3.91661452952205	0.020570119781621946	0.2179	3.898160194875253	0.04317832839998986	0.1804	3.9225945303852288	0.19275786702451222	-0.0119	3.553217798508842	0.6166486673785809	0.0301	3.8449632266251834	0.35884435863865044	0.129	4.22921225055204	0.18191100504473648	0.023	4.169970657965023	-0.011956674600005126	0.2179	4.2347261199323025	0.020307249552405534	0.1804	4.29503940268107	0.18926597752029065	-0.0119	3.0579936302964352	0.4251924650446192	0.0008	2.8836904401899326	0.1999602961397845	0.0655	3.024116372140611	0.2612354402325287	0.1076	3.07790391609483	0.4610293956214696	-0.01275	3.012528840309895	0.21577857353933394	0.0702	2.920080937882411	0.04781001691625184	0.1076	3.0503293355335344	0.4379465927786059	-0.01275	2.9636825793901322	0.18565478866977725	0.0702	2.8671006938740926	0.0025616859128768797	0.1076
198	7.934193548387097	3.5189703750257206	0.5968264913709209	0.0301	3.496011959555361	0.5463074080907542	0.0301	3.5305910338512696	0.24349093954651188	0.129	3.8680832442202058	0.19187388276220005	0.023	3.905941632453648	0.018051507910133702	0.2179	3.8839411106467256	0.04077082485986399	0.1804	3.9171845486847165	0.19267598324714014	-0.0119	3.551855080932162	0.6160361700846431	0.0301	3.8444423344074345	0.3587381360369592	0.129	4.229145407397943	0.18143499534903007	0.023	4.169115347362895	-0.012355446975910737	0.2179	4.233807490625142	0.018832430509052766	0.1804	4.295632337416173	0.18884010554188624	-0.0119	3.0573090769267366	0.42608330295712016	0.0008	2.8864550546850785	0.19893078886176385	0.0655	3.0255119116298075	0.2611375591666311	0.1076	3.0759184146262566	0.462952221994846	-0.01275	3.0146180425511706	0.2178080370571271	0.0702	2.9175313497208433	0.04657251544805974	0.1076	3.050586396251307	0.4350893441915712	-0.01275	2.965004793515403	0.1853772254382546	0.0702	2.869728020284193	0.0028769448910184394	0.1076
199	7.97426523297491	3.517095074193662	0.5986207989323172	0.0301	3.4957631247129313	0.5478063755550435	0.0301	3.530216751399713	0.24507917863093365	0.129	3.861053514221589	0.192196573582491	0.023	3.898486273064631	0.016872282050026003	0.2179	3.8759255486043704	0.03816790931360901	0.1804	3.910777501139114	0.1930840293624371	-0.0119	3.5514130578878933	0.6164316036759779	0.0301	3.8439706172069577	0.35838166605713645	0.129	4.229369219186427	0.1801748621228407	0.023	4.170641044189652	-0.013745069601790694	0.2179	4.234383608562925	0.01340861702759646	0.1804	4.296185806310478	0.18749453760369214	-0.0119	3.0562554512326714	0.42915887454093155	0.0008	2.88744991438911	0.19976592312552482	0.0655	3.0263098137176456	0.2620187927077911	0.1076	3.0758206570784243	0.46484345669330496	-0.01275	3.0151925667978037	0.21868934880173177	0.0702	2.9181477218804774	0.044041518129118384	0.1076	3.050686344993407	0.43447892399359	-0.01275	2.963952928935081	0.18642875761951827	0.0702	2.8693867904000374	0.005260724824920677	0.1076
200	8.014336917562725	3.516717175884736	0.6000492012006805	0.0301	3.496112018458651	0.5469030978542593	0.0301	3.5305324661212754	0.24367720714157304	0.129	3.866615736210574	0.19210357967013578	0.023	3.9000169267327243	0.01675854320522768	0.2179	3.8786649854564184	0.03777877849768494	0.1804	3.9110510486401204	0.19284392464882522	-0.0119	3.5515175373392123	0.6155680290155349	0.0301	3.8440130853992303	0.35799445912518607	0.129	4.229600664827704	0.17984855907674335	0.023	4.171329630397818	-0.013806824401164215	0.2179	4.234467268454697	0.010557466322399723	0.1804	4.296599020678407	0.18677463751265158	-0.0119	3.055651820664598	0.4297976280250139	0.0008	2.8867406557838597	0.20192943812634082	0.0655	3.0259111421962235	0.26258767238797304	0.1076	3.077119013203003	0.46326749521072225	-0.01275	3.0151487718996584	0.2184204730286687	0.0702	2.919997278052833	0.044970189914107304	0.1076	3.050491002992115	0.436287608900195	-0.01275	2.9627963751326476	0.18900845868291835	0.0702	2.8684325233889365	0.0073284702344887966	0.1076
201	8.054408602150538	3.516971234540671	0.6000611257044823	0.0301	3.496231541097742	0.5446248100564133	0.0301	3.532264953323591	0.2413125626980259	0.129	3.8772329042274127	0.19126127764574213	0.023	3.9047717385971032	0.015722412919473922	0.2179	3.884755403692434	0.03865898980300031	0.1804	3.917786448311339	0.1918012984174991	-0.0119	3.55143612809539	0.6136858035474505	0.0301	3.844192685041816	0.3577019719930293	0.129	4.229951047112217	0.1800115226079832	0.023	4.168446439748686	-0.012229732767078498	0.2179	4.232485972212516	0.012357024242806713	0.1804	4.296933037056926	0.18675772134906943	-0.0119	3.0559367807374804	0.4278765895759295	0.0008	2.8863862104474545	0.2033021383639002	0.0655	3.025463032898698	0.26314796591929845	0.1076	3.077890711969696	0.4583605905606914	-0.01275	3.014450980086689	0.21780470386915673	0.0702	2.9197541352394314	0.049286654800463695	0.1076	3.0500060635575585	0.43690345087271343	-0.01275	2.9626824060585126	0.19001234526835634	0.0702	2.868048263457787	0.007051734784771734	0.1076
202	8.094480286738351	3.5171711217916664	0.5994197017513989	0.0301	3.4943890158293605	0.5431883607478093	0.0301	3.533552338041441	0.2403870202956209	0.129	3.879807025202053	0.19045992205208945	0.023	3.9065813932253475	0.014382453138319184	0.2179	3.887135733414983	0.039083159603887765	0.1804	3.9230351097953937	0.19082851745521864	-0.0119	3.5519091222402994	0.6129876888359638	0.0301	3.8446012813071575	0.35774951067605837	0.129	4.230314652685196	0.17987578829057851	0.023	4.167078744751591	-0.009928781103495671	0.2179	4.231809310902307	0.014346598959935253	0.1804	4.295814129525374	0.18743264158282744	-0.0119	3.057191129905814	0.4275934505014153	0.0008	2.8862831125403834	0.202752482290762	0.0655	3.025160139037829	0.26463168321806213	0.1076	3.077292946463935	0.4558761561044877	-0.01275	3.0124659410069943	0.21640057513891142	0.0702	2.9181295708767374	0.05124502602974135	0.1076	3.0505816707306592	0.43628856336667854	-0.01275	2.9627605207914853	0.18850617787147214	0.0702	2.867714290219993	0.005815298537406116	0.1076
203	8.134551971326164	3.5176419897965436	0.5994216248817289	0.0301	3.491152527583287	0.5431518738638791	0.0301	3.532862581351537	0.24173021250349191	0.129	3.8741523462727505	0.18989482978790279	0.023	3.905720851493367	0.013475339106813889	0.2179	3.8855634039148876	0.03892746127630456	0.1804	3.9213125871130345	0.19048886508492444	-0.0119	3.5532256006540788	0.6134285577359033	0.0301	3.8449136448414074	0.35842452282695714	0.129	4.2301377105900375	0.17967300072809966	0.023	4.1680883314148485	-0.008485646766636129	0.2179	4.232300858886692	0.0136473865613475	0.1804	4.293027767889576	0.18837459347138574	-0.0119	3.05773057561657	0.429171485730214	0.0008	2.8857482690522622	0.20325330619921006	0.0655	3.0246375913834163	0.26633611441848093	0.1076	3.075329280614933	0.45853875944524747	-0.01275	3.010719617719442	0.21565600009239963	0.0702	2.9165233988491805	0.050370085913953234	0.1076	3.0514044835356327	0.43573260919827006	-0.01275	2.9620911663031073	0.18815911683713857	0.0702	2.8673393844595005	0.005587362455064626	0.1076
204	8.174623655913978	3.51855894452421	0.5999500745198831	0.0301	3.4897975587309307	0.5439631457049147	0.0301	3.531666136429716	0.24435745168226078	0.129	3.870054046532509	0.18945185457711944	0.023	3.905154013696233	0.013001788087126242	0.2179	3.883966430949219	0.03888268583616292	0.1804	3.9178054661494657	0.19122067636298887	-0.0119	3.553025623210785	0.6131532687843371	0.0301	3.843739828913035	0.3587061933674086	0.129	4.229355424556944	0.17936803181657882	0.023	4.16618265680786	-0.010581469031381935	0.2179	4.230920582835672	0.012235723757242167	0.1804	4.290999778567894	0.18886333734780997	-0.0119	3.0565265892190268	0.42965752191029405	0.0008	2.8848679647096485	0.20590186607746314	0.0655	3.024220282013543	0.2667395535457164	0.1076	3.0736604299454164	0.46222330092926445	-0.01275	3.0110799015010143	0.21699260918055446	0.0702	2.915565769550775	0.051182785446209064	0.1076	3.050498313864039	0.4349982332243701	-0.01275	2.9611485491313103	0.1895631817116858	0.0702	2.8670536301930314	0.006090529174488798	0.1076
205	8.214695340501793	3.5193603065456966	0.5997406854354259	0.0301	3.4910623518427752	0.5453793950137225	0.0301	3.5313868538385416	0.24660653347944933	0.129	3.8717932747966675	0.18884838665585604	0.023	3.9062732232010315	0.012826129583699298	0.2179	3.8842882860096575	0.03881016343795722	0.1804	3.9195606408928474	0.191633839762261	-0.0119	3.5500303435396323	0.6120991429419088	0.0301	3.84121314724942	0.35815601252689816	0.129	4.228073988149173	0.1788474319902303	0.023	4.161643345422494	-0.015094415509406017	0.2179	4.228204820778478	0.011853990887899518	0.1804	4.290602078312063	0.18869549675246902	-0.0119	3.0556509028893246	0.4290011623899418	0.0008	2.8829875672895273	0.207638241493642	0.0655	3.0236206436944526	0.2662188957822104	0.1076	3.0737489309438195	0.46310873625737203	-0.01275	3.0121368854489714	0.21861560811224007	0.0702	2.915659484719223	0.05319666584105083	0.1076	3.0499595252294167	0.434162423753226	-0.01275	2.9608616196839725	0.18791165467100865	0.0702	2.8666218350218893	0.0057178835421055705	0.1076
206	8.254767025089606	3.5195701061403275	0.5982721709827474	0.0301	3.492394526080729	0.5465846485919359	0.0301	3.5317006008808765	0.2475441307990979	0.129	3.8764277852449416	0.18782885613983236	0.023	3.9071862594180193	0.012701086992761932	0.2179	3.8850534794277998	0.03825219907307193	0.1804	3.9243405525526436	0.1905432278291043	-0.0119	3.5477560093849108	0.6125035442230455	0.0301	3.8395759662051794	0.35804753584767907	0.129	4.226395275128953	0.17935878693074106	0.023	4.1592293487888	-0.017809330012681073	0.2179	4.2256159230114365	0.012107727979990967	0.1804	4.290025902105871	0.18758253062746214	-0.0119	3.0555271446871433	0.4287416641950702	0.0008	2.879855258554446	0.20733630386904683	0.0655	3.0214956179634305	0.2662754207366977	0.1076	3.0743474625104277	0.4623823304695305	-0.01275	3.0120778580596017	0.21894347191200492	0.0702	2.9163147695805116	0.052503438017993224	0.1076	3.0509114719999926	0.43438185601603985	-0.01275	2.960743821909274	0.1846793597866315	0.0702	2.8660089997045928	0.0038323568274174313	0.1076
